<?xml version="1.0"?>
<svg xmlns="http://www.w3.org/2000/svg" xmlns:xlink="http://www.w3.org/1999/xlink" version="1.1" id="Layer_1" x="0px" y="0px" viewBox="0 0 489.6 489.6" style="enable-background:new 0 0 489.6 489.6;" xml:space="preserve" width="512px" height="512px" class=""><g transform="matrix(0.465881 0 0 0.465881 130.752 130.752)"><g>
	<g>
		<g id="XMLID_7140_">
			<rect id="XMLID_7139_" x="123.6" y="179.1" style="fill:#000000" width="55.1" height="81" data-original="#A7A9AC" class="active-path" data-old_color="#FF9B00"/>
			<rect id="XMLID_7137_" x="217.2" y="77" style="fill:#FF9B00" width="55.1" height="183.1" data-original="#3C92CA" class="" data-old_color="#3C92CA"/>
		</g>
		<path d="M53.9,334.7h383.7c14.1,0,25.5-11.4,25.5-25.5V20.5h17.4c5,0,9.1-4.1,9.1-9.1s-4.1-9.1-9.1-9.1H9.1c-5,0-9.1,4.1-9.1,9.1    s4.1,9.1,9.1,9.1h19.3v288.7C28.4,323.3,39.8,334.7,53.9,334.7z M444.9,309.2c0,4.1-3.3,7.4-7.4,7.4H53.9c-4.1,0-7.4-3.3-7.4-7.4    V20.5h398.4V309.2L444.9,309.2z" data-original="#000000" class="" style="fill:#000000" data-old_color="#FF9B00"/>
		<path d="M245.9,487.3c5,0,9.1-4.1,9.1-9.1v-51.1l57.2,57.2c1.8,1.8,4.1,2.7,6.4,2.7s4.6-0.9,6.4-2.7c3.5-3.5,3.5-9.3,0-12.8    l-70-70v-27h36.2c5,0,9.1-4.1,9.1-9.1s-4.1-9.1-9.1-9.1h-90.4c-5,0-9.1,4.1-9.1,9.1s4.1,9.1,9.1,9.1h36v27l-70.3,70.3    c-3.5,3.5-3.5,9.3,0,12.8c1.8,1.8,4.1,2.7,6.4,2.7c2.3,0,4.6-0.9,6.4-2.7l57.5-57.5v51.1C236.8,483.2,240.9,487.3,245.9,487.3z" data-original="#000000" class="" style="fill:#000000" data-old_color="#FF9B00"/>
		<path d="M123.6,269.1h55.2c5,0,9.1-4.1,9.1-9.1v-81c0-5-4.1-9.1-9.1-9.1h-55.1c-5,0-9.1,4.1-9.1,9.1v81    C114.6,265.1,118.6,269.1,123.6,269.1z M132.7,188.2h37v62.9h-37V188.2z" data-original="#000000" class="" style="fill:#000000" data-old_color="#FF9B00"/>
		<path d="M310.8,269.1h55.1c5,0,9.1-4.1,9.1-9.1V132.3c0-5-4.1-9.1-9.1-9.1h-55.1c-5,0-9.1,4.1-9.1,9.1v127.8    C301.8,265.1,305.8,269.1,310.8,269.1z M319.9,141.3h37V251h-37V141.3z" data-original="#000000" class="" style="fill:#000000" data-old_color="#FF9B00"/>
		<path d="M217.2,269.1h55.1c5,0,9.1-4.1,9.1-9.1V77c0-5-4.1-9.1-9.1-9.1h-55.1c-5,0-9.1,4.1-9.1,9.1v183.1    C208.2,265.1,212.2,269.1,217.2,269.1z M226.3,86h37v165h-37L226.3,86L226.3,86z" data-original="#000000" class="" style="fill:#000000" data-old_color="#FF9B00"/>
	</g>
</g></g> </svg>
