<?xml version="1.0"?>
<svg xmlns="http://www.w3.org/2000/svg" xmlns:xlink="http://www.w3.org/1999/xlink" version="1.1" id="Capa_1" x="0px" y="0px" viewBox="0 0 512 512" style="enable-background:new 0 0 512 512;" xml:space="preserve" width="512px" height="512px"><g transform="matrix(0.530906 0 0 0.530906 120.088 120.088)"><g>
	<g>
		<path d="M407.149,45.094V75.05h54.739l-96.74,100.815c-14.297-4.528-29.508-6.979-45.284-6.979    c-19.683,0-38.49,3.81-55.733,10.722l-37.462-52.341c5.552-8.579,8.79-18.789,8.79-29.747c0-30.284-24.638-54.921-54.921-54.921    c-30.283,0-54.921,24.638-54.921,54.921c0,11.169,3.36,21.566,9.111,30.246L73.74,221.573c-5.872-2.149-12.211-3.322-18.818-3.322    C24.638,218.253,0,242.891,0,273.173c0,30.283,24.638,54.922,54.921,54.922c30.283,0,54.921-24.638,54.921-54.922    c0-12.825-4.43-24.627-11.826-33.984l59.652-91.754c6.968,3.205,14.709,5.007,22.868,5.007c8.412,0,16.385-1.906,23.518-5.301    l33.282,46.501c-40.77,26.899-67.731,73.107-67.731,125.501c0,82.852,67.405,150.257,150.257,150.257    s150.257-67.405,150.257-150.257c0-55.764-30.535-104.527-75.762-130.455l87.686-91.379v53.13H512V45.094H407.149z     M54.921,298.139c-13.766,0-24.965-11.199-24.965-24.966c0-13.767,11.2-24.965,24.965-24.965s24.965,11.2,24.965,24.965    C79.886,286.938,68.688,298.139,54.921,298.139z M180.538,122.487c-13.766,0-24.965-11.201-24.965-24.966    c0-13.767,11.2-24.965,24.965-24.965c13.765,0,24.965,11.199,24.965,24.965S194.303,122.487,180.538,122.487z M440.165,319.143    c0,66.334-53.966,120.302-120.302,120.302s-120.302-53.966-120.302-120.302s53.966-120.302,120.302-120.302    S440.165,252.81,440.165,319.143z" data-original="#000000" class="active-path" data-old_color="#5F5050" fill="#FF9B00"/>
	</g>
</g><g>
	<g>
		<path d="M323.026,304.167h-6.324c-7.934,0-14.389-6.454-14.389-14.389s6.454-14.389,14.389-14.389h6.324    c7.934,0,14.389,6.454,14.389,14.389h29.956c0-20.36-13.797-37.548-32.529-42.734v-22.097h-29.956v22.097    c-18.731,5.186-32.529,22.374-32.529,42.734c0,24.452,19.893,44.345,44.345,44.345h6.324c7.934,0,14.389,6.454,14.389,14.389    s-6.454,14.389-14.389,14.389h-6.324c-7.934,0-14.389-6.454-14.389-14.389h-29.956c0,20.36,13.797,37.548,32.529,42.734v22.097    h29.956v-22.097c18.731-5.186,32.529-22.374,32.529-42.734C367.37,324.059,347.478,304.167,323.026,304.167z" data-original="#000000" class="active-path" data-old_color="#5F5050" fill="#FF9B00"/>
	</g>
</g></g> </svg>
