<?xml version="1.0"?>
<svg xmlns="http://www.w3.org/2000/svg" xmlns:xlink="http://www.w3.org/1999/xlink" version="1.1" id="Capa_1" x="0px" y="0px" viewBox="0 0 512 512" style="enable-background:new 0 0 512 512;" xml:space="preserve" width="512px" height="512px"><g transform="matrix(0.331033 0 0 0.331033 171.255 171.255)"><g>
	<g>
		<g>
			<path d="M230.997,267h66c21.776,0,40.346,12.455,48.461,32.504c3.149,7.78,10.639,12.501,18.546,12.501     c2.499,0,5.039-0.472,7.497-1.467c10.239-4.145,15.18-15.804,11.035-26.043C368.398,249.568,334.821,227,296.997,227h-66     c-29.225,0-53-23.776-53-53v-20c0-29.224,23.775-53,53-53h64c22.056,0,40,17.944,40,40c0,11.046,8.954,20,20,20     c11.046,0,20-8.954,20-20c0-44.112-35.888-80-80-80h-16V20c0-11.046-8.954-20-20-20c-11.046,0-20,8.954-20,20v41h-8     c-51.28,0-93,41.72-93,93v20C137.997,225.28,179.717,267,230.997,267z" data-original="#000000" class="active-path" data-old_color="#00FFAD" fill="#FF9B00"/>
			<path d="M371.359,367.404c-10.269-4.065-21.892,0.963-25.958,11.233C337.498,398.6,318.95,411,296.997,411h-89     c-22.056,0-40-17.944-40-40c0-11.046-8.954-20-20-20s-20,8.954-20,20c0,44.112,35.888,80,80,80h31v41c0,11.046,8.954,20,20,20     c11.046,0,20-8.954,20-20v-41h18c19.009,0,37.097-5.476,52.308-15.835c14.992-10.21,26.503-24.665,33.288-41.802     C386.659,383.093,381.63,371.471,371.359,367.404z" data-original="#000000" class="active-path" data-old_color="#00FFAD" fill="#FF9B00"/>
		</g>
	</g>
</g></g> </svg>
