<?xml version="1.0"?>
<svg xmlns="http://www.w3.org/2000/svg" xmlns:xlink="http://www.w3.org/1999/xlink" version="1.1" id="Capa_1" x="0px" y="0px" viewBox="0 0 512 512" style="enable-background:new 0 0 512 512;" xml:space="preserve" width="512px" height="512px" class=""><g transform="matrix(0.47534 0 0 0.47534 134.313 134.313)"><circle style="fill:#ED8A19" cx="256" cy="256" r="76.8" data-original="#EBBA16" class="" data-old_color="#EBBA16"/><circle style="fill:#ED8A19;" cx="128" cy="51.2" r="42.667" data-original="#ED8A19"/><g>
	<circle style="fill:#09090A" cx="366.933" cy="51.2" r="42.667" data-original="#C5411E" class="" data-old_color="#C5411E"/>
	<circle style="fill:#09090A" cx="51.2" cy="315.733" r="42.667" data-original="#C5411E" class="" data-old_color="#C5411E"/>
</g><circle style="fill:#09090A" cx="307.2" cy="460.8" r="42.667" data-original="#DD352E" class="" data-old_color="#DD352E"/><circle style="fill:#ED8A19;" cx="435.2" cy="315.733" r="25.6" data-original="#ED8A19"/><circle style="fill:#09090A" cx="477.867" cy="128" r="25.6" data-original="#DD352E" class="" data-old_color="#DD352E"/><circle style="fill:#ED8A19;" cx="145.067" cy="426.667" r="25.6" data-original="#ED8A19"/><g>
	<path style="fill:#09090A" d="M256,341.333c-47.053,0-85.333-38.281-85.333-85.333s38.281-85.333,85.333-85.333   s85.333,38.281,85.333,85.333S303.053,341.333,256,341.333z M256,187.733c-37.641,0-68.267,30.626-68.267,68.267   s30.626,68.267,68.267,68.267s68.267-30.626,68.267-68.267S293.641,187.733,256,187.733z" data-original="#4D007E" class="active-path" data-old_color="#FF9B00"/>
	<path style="fill:#09090A" d="M128,102.4c-28.228,0-51.2-22.963-51.2-51.2S99.772,0,128,0s51.2,22.963,51.2,51.2   S156.228,102.4,128,102.4z M128,17.067c-18.825,0-34.133,15.309-34.133,34.133S109.175,85.333,128,85.333   c18.825,0,34.133-15.309,34.133-34.133S146.825,17.067,128,17.067z" data-original="#4D007E" class="active-path" data-old_color="#FF9B00"/>
	<path style="fill:#09090A" d="M366.933,102.4c-28.228,0-51.2-22.963-51.2-51.2S338.705,0,366.933,0   c28.228,0,51.2,22.963,51.2,51.2S395.162,102.4,366.933,102.4z M366.933,17.067c-18.825,0-34.133,15.309-34.133,34.133   s15.309,34.133,34.133,34.133s34.133-15.309,34.133-34.133S385.758,17.067,366.933,17.067z" data-original="#4D007E" class="active-path" data-old_color="#FF9B00"/>
	<path style="fill:#09090A" d="M51.2,366.933c-28.228,0-51.2-22.963-51.2-51.2s22.972-51.2,51.2-51.2s51.2,22.963,51.2,51.2   S79.428,366.933,51.2,366.933z M51.2,281.6c-18.825,0-34.133,15.309-34.133,34.133c0,18.825,15.309,34.133,34.133,34.133   s34.133-15.309,34.133-34.133C85.333,296.909,70.025,281.6,51.2,281.6z" data-original="#4D007E" class="active-path" data-old_color="#FF9B00"/>
	<path style="fill:#09090A" d="M307.2,512c-28.228,0-51.2-22.963-51.2-51.2s22.972-51.2,51.2-51.2c28.228,0,51.2,22.963,51.2,51.2   S335.428,512,307.2,512z M307.2,426.667c-18.825,0-34.133,15.309-34.133,34.133s15.309,34.133,34.133,34.133   s34.133-15.309,34.133-34.133S326.025,426.667,307.2,426.667z" data-original="#4D007E" class="active-path" data-old_color="#FF9B00"/>
	<path style="fill:#09090A" d="M435.2,349.867c-18.825,0-34.133-15.309-34.133-34.133c0-18.825,15.309-34.133,34.133-34.133   c18.825,0,34.133,15.309,34.133,34.133C469.333,334.558,454.025,349.867,435.2,349.867z M435.2,298.667   c-9.412,0-17.067,7.654-17.067,17.067c0,9.412,7.654,17.067,17.067,17.067c9.412,0,17.067-7.654,17.067-17.067   C452.267,306.321,444.612,298.667,435.2,298.667z" data-original="#4D007E" class="active-path" data-old_color="#FF9B00"/>
	<path style="fill:#09090A" d="M477.867,162.133c-18.825,0-34.133-15.309-34.133-34.133s15.309-34.133,34.133-34.133   C496.691,93.867,512,109.175,512,128C512,146.825,496.691,162.133,477.867,162.133z M477.867,110.933   c-9.412,0-17.067,7.654-17.067,17.067c0,9.412,7.654,17.067,17.067,17.067c9.412,0,17.067-7.654,17.067-17.067   S487.279,110.933,477.867,110.933z" data-original="#4D007E" class="active-path" data-old_color="#FF9B00"/>
	<path style="fill:#09090A" d="M145.067,460.8c-18.825,0-34.133-15.309-34.133-34.133s15.309-34.133,34.133-34.133   s34.133,15.309,34.133,34.133S163.891,460.8,145.067,460.8z M145.067,409.6c-9.412,0-17.067,7.654-17.067,17.067   s7.654,17.067,17.067,17.067c9.412,0,17.067-7.654,17.067-17.067S154.479,409.6,145.067,409.6z" data-original="#4D007E" class="active-path" data-old_color="#FF9B00"/>
	
		<rect x="290.147" y="323.507" transform="matrix(-0.9839 0.1789 -0.1789 -0.9839 658.9506 682.9991)" style="fill:#09090A" width="17.067" height="95.406" data-original="#4D007E" class="active-path" data-old_color="#FF9B00"/>
	
		<rect x="209.075" y="399.353" transform="matrix(-0.2631 0.9648 -0.9648 -0.2631 707.0803 355.9263)" style="fill:#09090A" width="17.067" height="97.3" data-original="#4D007E" class="active-path" data-old_color="#FF9B00"/>
	
		<rect x="92.164" y="294.405" transform="matrix(-0.9647 0.2632 -0.2632 -0.9647 356.3952 558.1364)" style="fill:#09090A" width="97.303" height="17.068" data-original="#4D007E" class="active-path" data-old_color="#FF9B00"/>
	
		<rect x="174.925" y="77.203" transform="matrix(-0.8638 0.5039 -0.5039 -0.8638 410.6944 161.9216)" style="fill:#09090A" width="17.067" height="118.549" data-original="#4D007E" class="active-path" data-old_color="#FF9B00"/>
	
		<rect x="270.805" y="132.283" transform="matrix(-0.4786 0.878 -0.878 -0.4786 603.103 -76.5001)" style="fill:#09090A" width="106.92" height="17.066" data-original="#4D007E" class="active-path" data-old_color="#FF9B00"/>
	
		<rect x="422.37" y="59.501" transform="matrix(-0.4961 0.8682 -0.8682 -0.4961 726.2036 -233.6622)" style="fill:#09090A" width="17.066" height="68.775" data-original="#4D007E" class="active-path" data-old_color="#FF9B00"/>
	
		<rect x="362.625" y="233.371" transform="matrix(-0.4856 0.8742 -0.8742 -0.4856 793.8029 87.4962)" style="fill:#09090A" width="17.067" height="87.861" data-original="#4D007E" class="active-path" data-old_color="#FF9B00"/>
	<path style="fill:#09090A" d="M213.333,264.533c-4.71,0-8.533-3.814-8.533-8.533c0-28.237,22.972-51.2,51.2-51.2   c4.71,0,8.533,3.814,8.533,8.533s-3.823,8.533-8.533,8.533c-18.825,0-34.133,15.309-34.133,34.133   C221.867,260.719,218.044,264.533,213.333,264.533z" data-original="#4D007E" class="active-path" data-old_color="#FF9B00"/>
</g></g> </svg>
