<?xml version="1.0"?>
<svg xmlns="http://www.w3.org/2000/svg" xmlns:xlink="http://www.w3.org/1999/xlink" version="1.1" id="Layer_1" x="0px" y="0px" viewBox="0 0 512 512" style="enable-background:new 0 0 512 512;" xml:space="preserve" width="512px" height="512px" class=""><g transform="matrix(0.541685 0 0 0.541685 117.329 117.329)"><path d="M0,346.68v-310c0-5.504,4.704-10,10.448-10h491.104c5.744,0,10.448,4.496,10.448,10v310H0z" data-original="#000000" class=""/><path style="fill:#070808" d="M512,346.68v42.664c0,5.872-4.704,10.672-10.448,10.672H10.448c-5.744,0-10.448-4.8-10.448-10.664  v-42.664h512V346.68z" data-original="#E2E2E2" class="" data-old_color="#E2E2E2"/><polygon style="fill:#070808" points="181.336,474.68 330.664,474.68 320,400.016 192,400.016 " data-original="#C9C9C9" class="" data-old_color="#C9C9C9"/><polygon style="fill:#070808" points="320,400.016 192,400.016 185.352,446.552 322.488,417.416 " data-original="#AAAAAA" class="active-path" data-old_color="#AAAAAA"/><rect x="144" y="474.656" style="fill:#070808" width="224" height="10.664" data-original="#E2E2E2" class="" data-old_color="#E2E2E2"/><polygon style="fill:#070808" points="192,400.016 320,400.016 320.72,405.056 188.68,423.28 " data-original="#939393" class="" data-old_color="#939393"/><rect x="16" y="42.68" style="fill:#FFFFFF;" width="480" height="288" data-original="#FFFFFF" class=""/><polygon style="fill:#070808" points="299.136,249.296 199.944,149.24 102.744,246.448 97.088,240.792 199.976,137.904   299.136,237.936 395.472,140.76 401.16,146.392 " data-original="#939393" class="" data-old_color="#939393"/><circle cx="99.92" cy="243.616" r="34.912" data-original="#000000" class=""/><circle style="fill:#FFFFFF" cx="99.92" cy="243.616" r="15.368" data-original="#D8D8D8" class="" data-old_color="#D8D8D8"/><circle style="fill:#F38221" cx="300.752" cy="243.616" r="34.912" data-original="#E21B1B" class="" data-old_color="#E21B1B"/><circle style="fill:#FFFFFF;" cx="300.752" cy="243.616" r="15.368" data-original="#FFFFFF" class=""/><circle style="fill:#F38221" cx="200" cy="143.576" r="48.688" data-original="#E21B1B" class="" data-old_color="#E21B1B"/><circle style="fill:#FFFFFF;" cx="200" cy="143.576" r="21.424" data-original="#FFFFFF" class=""/><circle cx="398.312" cy="143.576" r="48.688" data-original="#000000" class=""/><circle style="fill:#FFFFFF" cx="398.312" cy="143.576" r="21.424" data-original="#D8D8D8" class="" data-old_color="#D8D8D8"/></g> </svg>
