<?xml version="1.0"?>
<svg xmlns="http://www.w3.org/2000/svg" xmlns:xlink="http://www.w3.org/1999/xlink" version="1.1" id="Capa_1" x="0px" y="0px" viewBox="0 0 512 512" style="enable-background:new 0 0 512 512;" xml:space="preserve" width="512px" height="512px" class=""><g transform="matrix(0.504886 0 0 0.504886 126.749 126.749)"><rect x="69" y="398" style="fill:#FFB954;" width="99" height="104" data-original="#FFB954" class=""/><path style="fill:#FF9B00" d="M447.886,402.633c-18.014,8.171-30.551,26.299-30.551,47.367s12.537,39.197,30.551,47.367  c18.014-8.171,30.551-26.299,30.551-47.367S465.9,410.803,447.886,402.633z" data-original="#FF5D5D" class="active-path" data-old_color="#FF5D5D"/><rect x="84.5" y="171.94" style="fill:#FF9B00" width="56.5" height="104" data-original="#4DBAF6" class="" data-old_color="#4DBAF6"/><rect x="419.668" y="189.955" transform="matrix(0.7071 0.7071 -0.7071 0.7071 291.3407 -255.2399)" style="fill:#FF9B00" width="68.209" height="68.209" data-original="#62CD4D" class="" data-old_color="#62CD4D"/><rect x="247.13" y="10" style="fill:#FF9B00" width="98.87" height="80" data-original="#FF5D5D" class="active-path" data-old_color="#FF5D5D"/><circle style="fill:#FF9B00" cx="256.13" cy="223.94" r="20" data-original="#4DBAF6" class="" data-old_color="#4DBAF6"/><circle style="fill:#FF9B00" cx="89" cy="50" r="20" data-original="#FF5D5D" class="active-path" data-old_color="#FF5D5D"/><path d="M509.071,231.135c3.905-3.905,3.905-10.237,0-14.143l-75.563-75.563c-3.905-3.905-10.237-3.905-14.143,0l-72.635,72.635  h-62.28c-3.01-8.611-9.839-15.439-18.45-18.45V100h80c5.523,0,10-4.477,10-10V10c0-5.523-4.477-10-10-10H166  c-5.523,0-10,4.477-10,10v30h-38.72C113.152,28.361,102.036,20,89,20c-16.542,0-30,13.458-30,30c0,13.036,8.361,24.152,20,28.28  v83.657H37c-5.523,0-10,4.477-10,10v104c0,5.522,4.477,10,10,10h42v36.621c0,5.522,4.477,10,10,10c5.523,0,10-4.478,10-10v-36.621  h42c5.523,0,10-4.478,10-10v-104c0-5.523-4.477-10-10-10H99V78.28c8.509-3.018,15.262-9.771,18.28-18.28H156v30  c0,5.523,4.477,10,10,10h80v95.7c-11.573,4.163-19.873,15.248-19.873,28.237c0,16.542,13.458,30,30,30  c12.989,0,24.073-8.3,28.237-19.873h62.367l69.706,69.706v85.048c-29.448,4.797-52,30.4-52,61.182c0,34.187,27.813,62,62,62  s62-27.813,62-62c0-30.782-22.552-56.385-52-61.182V303.77L509.071,231.135z M131,265.937H47v-84h84V265.937z M89,60  c-5.514,0-10-4.486-10-10s4.486-10,10-10c5.514,0,10,4.486,10,10S94.514,60,89,60z M176,20h160v60H176V20z M256.127,233.937  c-5.514,0-10-4.486-10-10s4.486-10,10-10s10,4.486,10,10S261.641,233.937,256.127,233.937z M426.437,162.642l61.421,61.421  l-60.96,60.96c-0.154-0.007-0.305-0.023-0.461-0.023s-0.307,0.016-0.461,0.023l-60.96-60.96L426.437,162.642z M468.437,450  c0,23.159-18.841,42-42,42s-42-18.841-42-42c0-22.593,17.933-41.066,40.311-41.957c0.55,0.094,1.112,0.153,1.689,0.153  s1.139-0.06,1.689-0.153C450.503,408.934,468.437,427.407,468.437,450z" data-original="#000000" class=""/><path d="M96.07,366.51c1.86-1.86,2.93-4.44,2.93-7.07s-1.07-5.21-2.93-7.069c-1.86-1.86-4.44-2.931-7.07-2.931  c-2.63,0-5.21,1.07-7.07,2.931C80.07,354.23,79,356.81,79,359.44s1.07,5.21,2.93,7.07c1.86,1.87,4.44,2.93,7.07,2.93  C91.63,369.439,94.21,368.38,96.07,366.51z" data-original="#000000" class=""/><path d="M332.67,444c-2.64,0-5.21,1.069-7.07,2.93c-1.87,1.86-2.93,4.44-2.93,7.07s1.06,5.21,2.93,7.069  c1.86,1.86,4.43,2.931,7.07,2.931c2.63,0,5.21-1.07,7.07-2.931c1.86-1.859,2.93-4.439,2.93-7.069s-1.07-5.21-2.93-7.07  S335.3,444,332.67,444z" data-original="#000000" class=""/><path d="M294,444H178v-46c0-5.522-4.477-10-10-10H10c-5.523,0-10,4.478-10,10v104c0,5.522,4.477,10,10,10h158  c5.523,0,10-4.478,10-10v-38h116c5.523,0,10-4.478,10-10S299.523,444,294,444z M158,492H20v-84h138V492z" data-original="#000000" class=""/><path d="M211.07,419.069c1.86-1.859,2.93-4.439,2.93-7.069s-1.07-5.21-2.93-7.07S206.63,402,204,402s-5.21,1.069-7.07,2.93  c-1.86,1.86-2.93,4.44-2.93,7.07s1.07,5.21,2.93,7.069c1.86,1.86,4.44,2.931,7.07,2.931S209.21,420.93,211.07,419.069z" data-original="#000000" class=""/><path d="M254.2,419.069c1.86-1.859,2.93-4.439,2.93-7.069s-1.07-5.21-2.93-7.07c-1.86-1.86-4.44-2.93-7.07-2.93  s-5.21,1.069-7.07,2.93c-1.87,1.86-2.93,4.44-2.93,7.07s1.06,5.21,2.93,7.069c1.86,1.86,4.44,2.931,7.07,2.931  S252.33,420.93,254.2,419.069z" data-original="#000000" class=""/><path d="M297.32,419.069c1.87-1.859,2.93-4.439,2.93-7.069s-1.06-5.21-2.93-7.07c-1.86-1.86-4.43-2.93-7.07-2.93  c-2.63,0-5.21,1.069-7.07,2.93c-1.86,1.86-2.93,4.44-2.93,7.07s1.07,5.21,2.93,7.069c1.86,1.86,4.44,2.931,7.07,2.931  C292.89,422,295.46,420.93,297.32,419.069z" data-original="#000000" class=""/><path d="M297.33,124.3c-1.87-1.86-4.44-2.92-7.08-2.92c-2.63,0-5.21,1.06-7.07,2.92c-1.86,1.86-2.93,4.44-2.93,7.07  c0,2.64,1.07,5.21,2.93,7.07c1.86,1.87,4.44,2.94,7.07,2.94c2.64,0,5.21-1.07,7.08-2.94c1.86-1.86,2.92-4.43,2.92-7.07  C300.25,128.74,299.19,126.17,297.33,124.3z" data-original="#000000" class=""/><path d="M290.25,164.5c-2.63,0-5.21,1.07-7.07,2.93c-1.86,1.86-2.93,4.44-2.93,7.07s1.07,5.21,2.93,7.07s4.44,2.93,7.07,2.93  c2.64,0,5.21-1.07,7.07-2.93c1.87-1.86,2.93-4.44,2.93-7.07s-1.06-5.21-2.93-7.07C295.46,165.57,292.89,164.5,290.25,164.5z" data-original="#000000" class=""/></g> </svg>
